# xmcd
#
# Track frame offsets:
#	150
#	16646
#	34596
#	50957
#	67143
#	82190
#	111050
#	129730
#	146710
#	167992
#	184645
#	200396
#	214942
#	232342
#	249649
#
# Disc length: 3548 seconds
# Revision: 0
# Processed by: cddbd v1.5.2PL0 Copyright (c) Steve Scherf et al.
# Submitted via: dBpowerAMP V12.0
#
DISCID=e70dda0f
DTITLE=My Darling Clementine - How Do You Plead?
DYEAR=2012
DGENRE=Country
TTITLE0=By a Thread
TTITLE1=100,000 Words
TTITLE2=Nothing Left To Say
TTITLE3=Put Your Hair Back
TTITLE4=Going Back To Memphis
TTITLE5=The Other Half
TTITLE6=I Bought Some Roses
TTITLE7=Reserved For Me and You
TTITLE8=You've Found Your Man
TTITLE9=She is Still My Weakness
TTITLE10=Goodbye Week
TTITLE11=Departure Lounge
TTITLE12=Goodnight Louise
TTITLE13=It's All Too Much
TTITLE14=By a Thread [Demo]
EXTD=
EXTT0=
EXTT1=
EXTT2=
EXTT3=
EXTT4=
EXTT5=
EXTT6=
EXTT7=
EXTT8=
EXTT9=
EXTT10=
EXTT11=
EXTT12=
EXTT13=
EXTT14=
PLAYORDER=
